<svg width="20" height="20" viewBox="0 0 20 20" fill="none" xmlns="http://www.w3.org/2000/svg">
<circle cx="10" cy="10" r="10" fill="#FFDBDB"/>
<path d="M6.81867 12.905C6.53858 12.6249 6.53858 12.1708 6.81867 11.8907L11.8901 6.81922C12.1702 6.53913 12.6243 6.53913 12.9044 6.81922C13.1845 7.09931 13.1845 7.55342 12.9044 7.83351L7.83296 12.905C7.55287 13.1851 7.09876 13.1851 6.81867 12.905Z" fill="#F7685B"/>
<path d="M7.00262 6.9115C7.28271 6.63142 7.73682 6.63142 8.01691 6.9115L13.0884 11.983C13.3685 12.2631 13.3685 12.7172 13.0884 12.9973C12.8083 13.2773 12.3542 13.2773 12.0741 12.9973L7.00262 7.9258C6.72253 7.64571 6.72253 7.19159 7.00262 6.9115Z" fill="#F7685B"/>
</svg>
