<svg width="12" height="11" viewBox="0 0 12 11" fill="none" xmlns="http://www.w3.org/2000/svg">
<path d="M4.76953 10.9434C5.02148 10.9434 5.2207 10.832 5.36133 10.6152L10.8984 1.89648C11.0039 1.72656 11.0449 1.59766 11.0449 1.46289C11.0449 1.14062 10.834 0.929688 10.5117 0.929688C10.2773 0.929688 10.1484 1.00586 10.0078 1.22852L4.74609 9.61328L2.01562 6.03906C1.86914 5.83398 1.72266 5.75195 1.51172 5.75195C1.17773 5.75195 0.949219 5.98047 0.949219 6.30273C0.949219 6.4375 1.00781 6.58984 1.11914 6.73047L4.16016 10.6035C4.33594 10.832 4.51758 10.9434 4.76953 10.9434Z" fill="white"/>
</svg>
