
  <svg
    width="15"
    height="24"
    viewBox="0 0 12 20"
    fill="none"
    xmlns="http://www.w3.org/2000/svg"
  >
    <path
      d="M10.8545 9.71191C10.8496 9.52637 10.813 9.35791 10.7446 9.20654C10.6763 9.05029 10.5664 8.89893 10.415 8.75244L4.88525 3.33252C4.66064 3.11279 4.38721 3.00293 4.06494 3.00293C3.85498 3.00293 3.65967 3.05664 3.479 3.16406C3.29834 3.2666 3.1543 3.40576 3.04688 3.58154C2.94434 3.75732 2.89307 3.95264 2.89307 4.16748C2.89307 4.49463 3.01758 4.78027 3.2666 5.02441L8.09326 9.70459L3.2666 14.3921C3.01758 14.646 2.89307 14.9341 2.89307 15.2563C2.89307 15.4712 2.94434 15.6665 3.04688 15.8423C3.1543 16.0181 3.29834 16.1572 3.479 16.2598C3.65967 16.3672 3.85498 16.4209 4.06494 16.4209C4.38721 16.4209 4.66064 16.3086 4.88525 16.084L10.415 10.6641C10.5664 10.5176 10.6763 10.3687 10.7446 10.2173C10.8179 10.061 10.8545 9.89258 10.8545 9.71191Z"
      fill="#40196D"
    />
  </svg>