<svg
        width="16"
        height="16"
        viewBox="0 0 16 16"
        fill="none"
        xmlns="http://www.w3.org/2000/svg"
      >
        <path
          fill-rule="evenodd"
          clip-rule="evenodd"
          d="M9.48963 1.17C9.10963 -0.39 6.88963 -0.39 6.50963 1.17C6.4529 1.40442 6.34162 1.62213 6.18485 1.80541C6.02808 1.9887 5.83026 2.13238 5.60747 2.22477C5.38469 2.31716 5.14323 2.35564 4.90277 2.33709C4.6623 2.31854 4.42961 2.24347 4.22363 2.118C2.85163 1.282 1.28163 2.852 2.11763 4.224C2.65763 5.11 2.17863 6.266 1.17063 6.511C-0.390372 6.89 -0.390372 9.111 1.17063 9.489C1.40511 9.54581 1.62285 9.65719 1.80614 9.81407C1.98942 9.97096 2.13307 10.1689 2.22537 10.3918C2.31767 10.6147 2.35602 10.8563 2.3373 11.0968C2.31857 11.3373 2.24331 11.5701 2.11763 11.776C1.28163 13.148 2.85163 14.718 4.22363 13.882C4.42957 13.7563 4.66228 13.6811 4.90281 13.6623C5.14335 13.6436 5.3849 13.682 5.60781 13.7743C5.83071 13.8666 6.02867 14.0102 6.18556 14.1935C6.34244 14.3768 6.45382 14.5945 6.51063 14.829C6.88963 16.39 9.11063 16.39 9.48863 14.829C9.54563 14.5946 9.65711 14.377 9.81403 14.1939C9.97095 14.0107 10.1689 13.8672 10.3917 13.7749C10.6146 13.6826 10.856 13.6442 11.0965 13.6628C11.337 13.6815 11.5696 13.7565 11.7756 13.882C13.1476 14.718 14.7176 13.148 13.8816 11.776C13.7562 11.57 13.6811 11.3373 13.6625 11.0969C13.6439 10.8564 13.6823 10.6149 13.7745 10.3921C13.8668 10.1692 14.0104 9.97133 14.1935 9.81441C14.3767 9.65749 14.5943 9.546 14.8286 9.489C16.3896 9.11 16.3896 6.889 14.8286 6.511C14.5942 6.45419 14.3764 6.34281 14.1931 6.18593C14.0098 6.02904 13.8662 5.83109 13.7739 5.60818C13.6816 5.38527 13.6432 5.14372 13.662 4.90318C13.6807 4.66265 13.7559 4.42994 13.8816 4.224C14.7176 2.852 13.1476 1.282 11.7756 2.118C11.5697 2.24368 11.337 2.31895 11.0964 2.33767C10.8559 2.35639 10.6144 2.31804 10.3914 2.22574C10.1685 2.13344 9.97059 1.9898 9.8137 1.80651C9.65681 1.62323 9.54543 1.40548 9.48863 1.171L9.48963 1.17ZM7.99963 11C8.79528 11 9.55834 10.6839 10.1209 10.1213C10.6836 9.55871 10.9996 8.79565 10.9996 8C10.9996 7.20435 10.6836 6.44129 10.1209 5.87868C9.55834 5.31607 8.79528 5 7.99963 5C7.20398 5 6.44092 5.31607 5.87831 5.87868C5.3157 6.44129 4.99963 7.20435 4.99963 8C4.99963 8.79565 5.3157 9.55871 5.87831 10.1213C6.44092 10.6839 7.20398 11 7.99963 11Z"
          fill="white"
        />
      </svg>