<svg xmlns="http://www.w3.org/2000/svg" width="16" height="16" viewBox="0 0 16 16" fill="none">
<path fill-rule="evenodd" clip-rule="evenodd" d="M8 16C3.581 16 0 12.418 0 8C0 3.582 3.581 0 8 0C12.418 0 16 3.582 16 8C16 12.418 12.418 16 8 16ZM8.007 9.41L9.315 10.718C9.702 11.105 10.331 11.105 10.718 10.718C11.106 10.331 11.106 9.702 10.718 9.315L9.41 8.007L10.718 6.698C11.105 6.311 11.105 5.683 10.718 5.295C10.33 4.907 9.702 4.907 9.315 5.295L8.007 6.603L6.694 5.291C6.307 4.903 5.678 4.903 5.291 5.291C4.903 5.678 4.903 6.306 5.291 6.694L6.603 8.006L5.291 9.319C4.903 9.707 4.903 10.335 5.291 10.722C5.678 11.11 6.307 11.11 6.694 10.722L8.007 9.41Z" fill="#ED1C24"/>
</svg>