<svg width="135" height="79" viewBox="0 0 135 79" fill="none" xmlns="http://www.w3.org/2000/svg">
<path d="M0.383086 51.0259L0.287598 51.1212L3.28866 54.1158L3.38415 54.0205L0.383086 51.0259Z" fill="#F7685B"/>
<path d="M0.383937 50.7525L0.015625 51.12L3.28951 54.3869L3.65782 54.0193L0.383937 50.7525Z" fill="#F7685B"/>
<path d="M3.2745 51.0258L0.273438 54.0205L0.368923 54.1157L3.36998 51.1211L3.2745 51.0258Z" fill="#F7685B"/>
<path d="M3.27759 50.7543L0 54.0175L0.367893 54.3854L3.64548 51.1222L3.27759 50.7543Z" fill="#F7685B"/>
<path d="M26.7 59.7853L26.6045 59.8806L29.6056 62.8752L29.701 62.7799L26.7 59.7853Z" fill="#F7685B"/>
<path d="M26.7135 59.5276L26.3452 59.8951L29.6191 63.162L29.9874 62.7944L26.7135 59.5276Z" fill="#F7685B"/>
<path d="M29.607 59.7988L26.606 62.7934L26.7014 62.8887L29.7025 59.8941L29.607 59.7988Z" fill="#F7685B"/>
<path d="M29.6064 59.5266L26.3325 62.7935L26.7008 63.161L29.9747 59.8941L29.6064 59.5266Z" fill="#F7685B"/>
<path d="M17.235 33.1713L17.0576 33.3483L22.7596 39.0381L22.937 38.8611L17.235 33.1713Z" fill="#F7685B"/>
<path d="M17.2358 32.8987L16.7856 33.3479L22.7605 39.31L23.2106 38.8608L17.2358 32.8987Z" fill="#F7685B"/>
<path d="M22.7738 33.1713L17.0718 38.8611L17.2491 39.038L22.9511 33.3482L22.7738 33.1713Z" fill="#F7685B"/>
<path d="M22.7778 32.9004L16.8013 38.8616L17.2514 39.3109L23.2279 33.3497L22.7778 32.9004Z" fill="#F7685B"/>
<path d="M6.39609 72.457L6.21875 72.6339L11.9208 78.3237L12.0981 78.1467L6.39609 72.457Z" fill="#F7685B"/>
<path d="M6.39694 72.1843L5.94678 72.6335L11.9216 78.5955L12.3718 78.1463L6.39694 72.1843Z" fill="#F7685B"/>
<path d="M11.9344 72.457L6.23242 78.1468L6.40976 78.3238L12.1118 72.634L11.9344 72.457Z" fill="#F7685B"/>
<path d="M11.9338 72.1848L5.95898 78.1469L6.40915 78.5961L12.384 72.634L11.9338 72.1848Z" fill="#F7685B"/>
<path d="M134.511 51.0217L131.51 54.0163L131.605 54.1116L134.606 51.117L134.511 51.0217Z" fill="#F7685B"/>
<path d="M134.51 50.7495L131.236 54.0164L131.605 54.3839L134.879 51.117L134.51 50.7495Z" fill="#F7685B"/>
<path d="M131.618 51.0218L131.522 51.117L134.524 54.1116L134.619 54.0164L131.618 51.0218Z" fill="#F7685B"/>
<path d="M131.619 50.7514L131.25 51.1189L134.524 54.3858L134.893 54.0182L131.619 50.7514Z" fill="#F7685B"/>
<path d="M108.18 59.8042L105.179 62.7988L105.274 62.8941L108.275 59.8994L108.18 59.8042Z" fill="#F7685B"/>
<path d="M108.181 59.5307L104.904 62.7939L105.272 63.1618L108.549 59.8986L108.181 59.5307Z" fill="#F7685B"/>
<path d="M105.273 59.7906L105.178 59.8859L108.179 62.8805L108.274 62.7852L105.273 59.7906Z" fill="#F7685B"/>
<path d="M105.273 59.5149L104.904 59.8824L108.178 63.1493L108.546 62.7818L105.273 59.5149Z" fill="#F7685B"/>
<path d="M117.63 33.1813L111.928 38.8711L112.106 39.048L117.808 33.3582L117.63 33.1813Z" fill="#F7685B"/>
<path d="M117.627 32.9047L111.653 38.8675L112.104 39.3167L118.078 33.3538L117.627 32.9047Z" fill="#F7685B"/>
<path d="M112.106 33.1676L111.928 33.3445L117.63 39.0343L117.808 38.8574L112.106 33.1676Z" fill="#F7685B"/>
<path d="M112.105 32.8953L111.655 33.3445L117.63 39.3066L118.08 38.8574L112.105 32.8953Z" fill="#F7685B"/>
<path d="M128.491 72.4588L122.789 78.1487L122.966 78.3256L128.668 72.6358L128.491 72.4588Z" fill="#F7685B"/>
<path d="M128.487 72.1788L122.515 78.1442L122.966 78.5931L128.937 72.6277L128.487 72.1788Z" fill="#F7685B"/>
<path d="M122.951 72.4588L122.773 72.6358L128.475 78.3256L128.653 78.1487L122.951 72.4588Z" fill="#F7685B"/>
<path d="M122.952 72.1888L122.501 72.638L128.476 78.6L128.926 78.1508L122.952 72.1888Z" fill="#F7685B"/>
<path d="M90.9322 62.8279H50.6584C45.3379 62.8279 40.9863 58.4857 40.9863 53.1766V13.0066C40.9863 7.6975 45.3379 3.35527 50.6584 3.35527H90.9146C96.2351 3.35527 100.587 7.6975 100.587 13.0066V53.1766C100.604 58.4857 96.2527 62.8279 90.9322 62.8279Z" fill="#FFDBDB"/>
<path d="M87.8199 60.0903H47.5637C42.2432 60.0903 37.8916 55.748 37.8916 50.4389V10.2514C37.8916 4.94223 42.2432 0.600006 47.5637 0.600006H87.8199C93.1404 0.600006 97.492 4.94223 97.492 10.2514V50.4213C97.5096 55.748 93.158 60.0903 87.8199 60.0903Z" fill="#F7685B"/>
<path d="M56.6677 41.1456C55.974 40.4519 55.974 39.3272 56.6677 38.6335L75.9492 19.352C76.6429 18.6583 77.7676 18.6583 78.4613 19.352C79.155 20.0457 79.155 21.1704 78.4613 21.8641L59.1798 41.1457C58.4861 41.8394 57.3614 41.8394 56.6677 41.1456Z" fill="white"/>
<path d="M78.4613 41.1456C77.7676 41.8394 76.6429 41.8394 75.9492 41.1456L56.6677 21.8641C55.974 21.1704 55.974 20.0457 56.6677 19.352C57.3614 18.6583 58.4861 18.6583 59.1798 19.352L78.4613 38.6335C79.155 39.3272 79.155 40.4519 78.4613 41.1456Z" fill="white"/>
</svg>
