<svg width="65" height="64" viewBox="0 0 65 64" fill="none" xmlns="http://www.w3.org/2000/svg">
<g clip-path="url(#clip0_13734_282)">
<path d="M54.6151 64.0001H13.3798C7.93224 64.0001 3.47681 59.5446 3.47681 54.0971V12.8798C3.47681 7.43224 7.93224 2.97681 13.3798 2.97681H54.597C60.0446 2.97681 64.5 7.43224 64.5 12.8798V54.0971C64.518 59.5446 60.0626 64.0001 54.6151 64.0001Z" fill="#FFDBDB"/>
<path d="M51.6202 61.0233H10.403C4.95543 61.0233 0.5 56.5691 0.5 51.1232V9.90005C0.5 4.45412 4.95543 0 10.403 0H51.6202C57.0678 0 61.5232 4.45412 61.5232 9.90005V51.1052C61.5412 56.5691 57.0858 61.0233 51.6202 61.0233Z" fill="#F7685B"/>
<path d="M32.8325 19.2357C32.8325 18.2298 32.0171 17.4143 31.0111 17.4143C30.0052 17.4143 29.1897 18.2298 29.1897 19.2357V34.3038C29.1897 35.3098 30.0052 36.1253 31.0111 36.1253C32.0171 36.1253 32.8325 35.3098 32.8325 34.3038V19.2357Z" fill="white"/>
<rect x="29.1897" y="39.9714" width="3.64285" height="3.63824" rx="1.81912" fill="white"/>
</g>
<defs>
<clipPath id="clip0_13734_282">
<rect width="64" height="64" fill="white" transform="translate(0.5)"/>
</clipPath>
</defs>
</svg>
