<svg
          width="65"
          height="64"
          viewBox="0 0 65 64"
          fill="none"
          xmlns="http://www.w3.org/2000/svg"
        >
          <g clip-path="url(#clip0_7744_14119)">
            <path
              d="M54.5755 63.9998H13.3402C7.89269 63.9998 3.43726 59.5444 3.43726 54.0968V12.8795C3.43726 7.432 7.89269 2.97656 13.3402 2.97656H54.5575C60.005 2.97656 64.4605 7.432 64.4605 12.8795V54.0968C64.4785 59.5444 60.0231 63.9998 54.5755 63.9998Z"
              fill="#FFF5DB"
            />
            <path
              d="M51.6202 61.0233H10.403C4.95543 61.0233 0.5 56.5691 0.5 51.1232V9.90005C0.5 4.45412 4.95543 0 10.403 0H51.6202C57.0678 0 61.5232 4.45412 61.5232 9.90005V51.1052C61.5412 56.5691 57.0858 61.0233 51.6202 61.0233Z"
              fill="#FFC83E"
            />
            <path
              d="M33.2029 19.6808C33.2029 18.6749 32.3874 17.8594 31.3815 17.8594C30.3755 17.8594 29.5601 18.6749 29.5601 19.6808V34.7489C29.5601 35.7549 30.3755 36.5703 31.3815 36.5703C32.3874 36.5703 33.2029 35.7549 33.2029 34.7489V19.6808Z"
              fill="white"
            />
            <rect
              x="29.5601"
              y="40.418"
              width="3.64285"
              height="3.63824"
              rx="1.81912"
              fill="white"
            />
          </g>
          <defs>
            <clipPath id="clip0_7744_14119">
              <rect
                width="64"
                height="64"
                fill="white"
                transform="translate(0.5)"
              />
            </clipPath>
          </defs>
        </svg>