<svg viewBox="0 0 95 45" fill="none">
<path fill-rule="evenodd" clip-rule="evenodd" d="M56.294 6.55847V20.9512H52.1242V18.8495C51.6701 19.6061 51.0647 20.1777 50.3417 20.5813C49.6019 20.9848 48.7612 21.1698 47.8366 21.1698C46.0375 21.1698 44.6923 20.6654 43.8012 19.6733C42.9101 18.6645 42.4729 17.1512 42.4729 15.1336V6.55847H46.7605V15.2177C46.7605 16.9663 47.5003 17.8238 48.9968 17.8238C49.8879 17.8238 50.6108 17.5211 51.1488 16.9158C51.7038 16.3106 51.9727 15.5203 51.9727 14.5283V6.55847H56.294Z" fill="#40196D"/>
<path fill-rule="evenodd" clip-rule="evenodd" d="M72.6687 0V20.9501H68.4317V18.8148C67.9945 19.5546 67.3722 20.1262 66.5821 20.5466C65.7919 20.9669 64.8839 21.1687 63.875 21.1687C62.6476 21.1687 61.5378 20.8492 60.5795 20.2103C59.6212 19.5714 58.8645 18.6803 58.3263 17.5369C57.7884 16.3936 57.5193 15.0821 57.5193 13.6025C57.5193 12.1228 57.7884 10.8282 58.3263 9.70164C58.8645 8.5751 59.6212 7.70077 60.5626 7.09548C61.5212 6.47335 62.6139 6.1707 63.875 6.1707C64.8333 6.1707 65.7244 6.37248 66.5148 6.77602C67.305 7.17955 67.9273 7.75122 68.3643 8.4574V0H72.6687ZM67.5741 16.8139C68.1458 16.0909 68.4317 15.0485 68.4317 13.6697C68.4317 12.3246 68.1457 11.2989 67.5572 10.5591C66.9856 9.83613 66.1617 9.46623 65.1361 9.46623C64.0767 9.46623 63.253 9.81932 62.6645 10.5423C62.076 11.2653 61.79 12.291 61.79 13.6025C61.79 14.9644 62.076 16.0237 62.6645 16.7635C63.253 17.5033 64.0767 17.89 65.1361 17.89C66.1954 17.9068 67.0193 17.5537 67.5741 16.8139Z" fill="#40196D"/>
<path fill-rule="evenodd" clip-rule="evenodd" d="M89.0479 6.55835V20.9511H84.8109V18.8157C84.3736 19.5555 83.7516 20.1272 82.9612 20.5475C82.171 20.9679 81.2631 21.1697 80.2542 21.1697C79.0099 21.1697 77.9003 20.867 76.942 20.2617C75.9835 19.6564 75.2436 18.7989 74.7057 17.6724C74.1675 16.5458 73.8987 15.2512 73.8987 13.7715C73.8987 12.2919 74.1675 10.9804 74.7057 9.82025C75.2436 8.66008 76.0003 7.76896 76.9586 7.13004C77.9172 6.49109 79.0268 6.17163 80.2542 6.17163C81.2631 6.17163 82.1542 6.39023 82.9612 6.82737C83.7516 7.26453 84.3736 7.85304 84.8109 8.59285V6.55835H89.0479ZM83.9701 16.8317C84.5418 16.1087 84.8277 15.0662 84.8277 13.7043C84.8277 12.3424 84.5418 11.2999 83.9701 10.5601C83.3984 9.83706 82.5914 9.46716 81.5322 9.46716C80.4729 9.46716 79.649 9.85388 79.0605 10.6105C78.472 11.3671 78.186 12.4096 78.186 13.7547C78.186 15.0998 78.472 16.1255 79.0605 16.8317C79.6322 17.5378 80.4729 17.8909 81.549 17.8909C82.5746 17.9077 83.3984 17.5546 83.9701 16.8317Z" fill="#40196D"/>
<path fill-rule="evenodd" clip-rule="evenodd" d="M41.5813 21.1519H36.268L30.5345 14.6281V21.1519H26.1965V0H30.5345V12.8458L35.9991 6.60787H41.2113L35.0237 13.6025L41.5813 21.1519Z" fill="#40196D"/>
<path fill-rule="evenodd" clip-rule="evenodd" d="M14.2918 21.1687L5.95213 11.568L10.5087 21.1687H7.34768L2.70705 11.383L4.64063 21.1687H2.69023L0.77344 11.3662V21.1687H0V0H0.77344V10.5591L2.72386 0H4.65745L2.69023 10.6096L7.43175 0H10.5423L5.83442 10.5591L14.3927 0H19.2856L10.4246 10.929L19.3192 21.1687H14.2918Z" fill="#40196D"/>
<path fill-rule="evenodd" clip-rule="evenodd" d="M95 18.5789C95 17.2842 93.9407 16.225 92.6461 16.225C91.3512 16.225 90.292 17.2842 90.292 18.5789C90.292 19.8736 91.3512 20.9329 92.6461 20.9329C93.9407 20.9329 95 19.8736 95 18.5789Z" fill="#40196D"/>
<path d="M36.2901 27.7571V39.9323H35.4693L27.7401 29.5526V39.9323H26.7483V27.7571H27.5862L35.2983 38.1368V27.7571H36.2901ZM42.8598 27.7571H50.3667V28.6634H43.9029V33.2804H50.0247V34.2209H43.9029V39.026H50.3667V39.9323H42.8598V27.7571ZM65.6534 39.9323H64.559L63.0371 35.8796C62.8433 35.3324 62.5754 34.9676 62.2334 34.7852C61.8914 34.5914 61.3955 34.4945 60.7457 34.4945H57.3428V39.9323H56.2826V27.7571H60.9851C62.2505 27.7571 63.2309 28.0478 63.9263 28.6292C64.6217 29.1992 64.9694 30.02 64.9694 31.0916C64.9694 31.8782 64.7585 32.5394 64.3367 33.0752C63.9263 33.611 63.3335 33.9872 62.5583 34.2038C62.9117 34.2608 63.2138 34.409 63.4646 34.6484C63.7154 34.8878 63.9263 35.2412 64.0973 35.7086L65.6534 39.9323ZM60.9167 33.5711C62.9117 33.5711 63.9092 32.7389 63.9092 31.0745C63.9092 29.4671 62.9117 28.6634 60.9167 28.6634H57.3257V33.5711H60.9167ZM81.3633 27.7571L76.0965 39.9323H75.1218L69.855 27.7571H70.9665L75.6177 38.5643L80.2689 27.7571H81.3633ZM86.4682 27.7571H93.9751V28.6634H87.5112V33.2804H93.633V34.2209H87.5112V39.026H93.9751V39.9323H86.4682V27.7571Z" fill="#40196D"/>
</svg>
