<svg width="217" height="64" viewBox="0 0 217 64" fill="none" xmlns="http://www.w3.org/2000/svg">
<path d="M2.57864 52.753C1.36657 52.753 0.371582 51.7609 0.371582 50.5523C0.371582 49.3437 1.36657 48.3516 2.57864 48.3516C3.79072 48.3516 4.78571 49.3437 4.78571 50.5523C4.78571 51.7609 3.79072 52.753 2.57864 52.753ZM2.57864 48.8206C1.61984 48.8206 0.823849 49.5962 0.823849 50.5703C0.823849 51.5444 1.60175 52.3201 2.57864 52.3201C3.55554 52.3201 4.33344 51.5444 4.33344 50.5703C4.33344 49.5962 3.53745 48.8206 2.57864 48.8206Z" fill="#40196D"/>
<path d="M53.9063 47.5459C52.6942 47.5459 51.6992 46.5538 51.6992 45.3452C51.6992 44.1366 52.6942 43.1445 53.9063 43.1445C55.1184 43.1445 56.1133 44.1366 56.1133 45.3452C56.0952 46.5538 55.1184 47.5459 53.9063 47.5459ZM53.9063 43.5955C52.9475 43.5955 52.1515 44.3712 52.1515 45.3452C52.1515 46.3193 52.9294 47.095 53.9063 47.095C54.8832 47.095 55.6611 46.3193 55.6611 45.3452C55.6611 44.3712 54.8651 43.5955 53.9063 43.5955Z" fill="#40196D"/>
<path d="M25.5576 13.1669C22.7536 13.1669 20.4561 10.876 20.4561 8.06198C20.4561 5.24796 22.7536 2.9751 25.5576 2.9751C28.3798 2.9751 30.6592 5.266 30.6592 8.06198C30.6773 10.876 28.3798 13.1669 25.5576 13.1669ZM25.5576 3.58841C23.0973 3.58841 21.0711 5.60873 21.0711 8.06198C21.0711 10.5152 23.0792 12.5355 25.5576 12.5355C28.036 12.5355 30.0441 10.5333 30.0441 8.06198C30.0441 5.59069 28.036 3.58841 25.5576 3.58841Z" fill="#40196D"/>
<path d="M36.9672 34.6526H31.1781C31.0153 34.6526 30.8706 34.5083 30.8706 34.346V28.5736C30.8706 28.4113 31.0153 28.267 31.1781 28.267H36.9672C37.13 28.267 37.2747 28.4113 37.2747 28.5736V34.346C37.2928 34.5264 37.1481 34.6526 36.9672 34.6526ZM31.5038 34.0393H36.6596V28.8983H31.5038V34.0393Z" fill="#40196D"/>
<path d="M69.1636 18.5073H66.8842C66.7214 18.5073 66.5767 18.363 66.5767 18.2006V15.9278C66.5767 15.7654 66.7214 15.6211 66.8842 15.6211H69.1636C69.3264 15.6211 69.4712 15.7654 69.4712 15.9278V18.2006C69.4893 18.363 69.3445 18.5073 69.1636 18.5073ZM67.2098 17.894H68.8561V16.2524H67.2098V17.894Z" fill="#40196D"/>
<path d="M170.695 47.5459C169.483 47.5459 168.488 46.5538 168.488 45.3452C168.488 44.1366 169.483 43.1445 170.695 43.1445C171.907 43.1445 172.902 44.1366 172.902 45.3452C172.884 46.5718 171.907 47.5459 170.695 47.5459ZM170.695 43.6135C169.736 43.6135 168.94 44.3892 168.94 45.3633C168.94 46.3373 169.718 47.113 170.695 47.113C171.672 47.113 172.45 46.3373 172.45 45.3633C172.45 44.3892 171.654 43.6135 170.695 43.6135Z" fill="#40196D"/>
<path d="M159.954 20.7624C158.742 20.7624 157.747 19.7703 157.747 18.5617C157.747 17.3531 158.742 16.361 159.954 16.361C161.166 16.361 162.161 17.3531 162.161 18.5617C162.161 19.7883 161.166 20.7624 159.954 20.7624ZM159.954 16.83C158.995 16.83 158.199 17.6056 158.199 18.5797C158.199 19.5538 158.977 20.3295 159.954 20.3295C160.931 20.3295 161.709 19.5538 161.709 18.5797C161.709 17.6056 160.913 16.83 159.954 16.83Z" fill="#40196D"/>
<path d="M211.527 60.757C208.705 60.757 206.425 58.4661 206.425 55.6701C206.425 52.8561 208.723 50.5833 211.527 50.5833C214.349 50.5833 216.628 52.8742 216.628 55.6701C216.628 58.4841 214.331 60.757 211.527 60.757ZM211.527 51.1966C209.048 51.1966 207.04 53.1988 207.04 55.6701C207.04 58.1414 209.048 60.1437 211.527 60.1437C214.005 60.1437 216.013 58.1414 216.013 55.6701C216.013 53.1988 213.987 51.1966 211.527 51.1966Z" fill="#40196D"/>
<path d="M188.718 37.6281H182.929C182.766 37.6281 182.621 37.4838 182.621 37.3214V31.5491C182.621 31.3867 182.766 31.2424 182.929 31.2424H188.718C188.88 31.2424 189.025 31.3867 189.025 31.5491V37.3214C189.025 37.4838 188.899 37.6281 188.718 37.6281ZM183.236 36.9967H188.392V31.8557H183.236V36.9967Z" fill="#40196D"/>
<path d="M209.012 16.2756H206.733C206.57 16.2756 206.425 16.1313 206.425 15.9689V13.6961C206.425 13.5337 206.57 13.3894 206.733 13.3894H209.012C209.175 13.3894 209.32 13.5337 209.32 13.6961V15.9689C209.32 16.1313 209.193 16.2756 209.012 16.2756ZM207.058 15.6442H208.705V14.0027H207.058V15.6442Z" fill="#40196D"/>
<path d="M135.717 64H94.3615C88.8981 64 84.4297 59.5444 84.4297 54.0968V12.8786C84.4297 7.43099 88.8981 2.97546 94.3615 2.97546H135.699C141.162 2.97546 145.63 7.43099 145.63 12.8786V54.0968C145.648 59.5444 141.18 64 135.717 64Z" fill="#F4E6FF"/>
<path d="M132.765 61.0425H91.4274C85.964 61.0425 81.4956 56.587 81.4956 51.1394V9.90318C81.4956 4.45553 85.964 0 91.4274 0H132.765C138.228 0 142.696 4.45553 142.696 9.90318V51.1213C142.714 56.587 138.246 61.0425 132.765 61.0425Z" fill="#40196D"/>
<g clip-path="url(#clip0_2873_729)">
<path d="M104.565 41.7479C103.693 40.8704 103.693 39.4623 104.565 38.5848L123.038 19.9938C123.91 19.1163 125.31 19.1163 126.182 19.9938C127.054 20.8713 127.054 22.2794 126.182 23.1569L107.708 41.7479C106.836 42.6255 105.437 42.6255 104.565 41.7479Z" fill="white"/>
<path d="M107.667 41.7275C106.795 42.6051 105.396 42.6051 104.524 41.7275L96.9802 34.1565C96.1082 33.2789 96.1082 31.8708 96.9802 30.9933C97.8521 30.1158 99.2514 30.1158 100.123 30.9933L107.667 38.5848C108.539 39.4419 108.539 40.85 107.667 41.7275Z" fill="white"/>
</g>
<defs>
<clipPath id="clip0_2873_729">
<rect width="30.4989" height="23.0602" fill="white" transform="translate(96.3315 19.3408)"/>
</clipPath>
</defs>
</svg>
