<svg width="18" height="24" viewBox="0 0 18 24" fill="none" xmlns="http://www.w3.org/2000/svg">
<g clip-path="url(#clip0_13277_73670)">
<rect x="4" y="5" width="11" height="14" fill="black"/>
<path d="M0 0C6.0019 0 11.9962 0 18 0C18 6.47838 18 12.9442 18 19.4322C16.5121 19.4322 15.0289 19.4322 13.5164 19.4322C13.5164 20.9648 13.5164 22.4752 13.5164 24C8.99478 24 4.50166 24 0.000948317 24C0 15.9949 0 8.00514 0 0ZM8.43148 8.24144C8.43148 8.39286 8.43148 8.4787 8.43148 8.5655C8.43148 10.587 8.43054 12.6086 8.43338 14.6301C8.43338 14.7565 8.44097 14.8867 8.46942 15.0092C8.52821 15.259 8.70555 15.4027 8.9578 15.421C9.20531 15.4393 9.39497 15.3352 9.48981 15.1056C9.54291 14.9773 9.56472 14.8278 9.56567 14.687C9.57041 12.6414 9.56852 10.5957 9.56852 8.55007C9.56852 8.46616 9.56852 8.38225 9.56852 8.24144C10.1641 8.84617 10.7141 9.40749 11.267 9.96496C11.3504 10.0489 11.4395 10.1318 11.5391 10.1935C11.7383 10.316 11.9431 10.3112 12.1356 10.1714C12.4476 9.94374 12.4561 9.55506 12.1479 9.24257C11.2537 8.33692 10.3556 7.43417 9.45851 6.53046C9.1285 6.19772 8.85064 6.19675 8.52347 6.52853C7.70223 7.36184 6.88193 8.19515 6.06164 9.02942C5.95069 9.14226 5.83594 9.2551 5.74016 9.38145C5.58748 9.58495 5.58843 9.82222 5.72499 10.0286C5.85301 10.2225 6.10716 10.3372 6.32527 10.2572C6.45993 10.208 6.58606 10.1087 6.69037 10.0045C7.26031 9.43739 7.82172 8.8616 8.43148 8.24144Z" fill="#DBDCE0"/>
<path d="M14.0801 23.9084C14.0801 22.6343 14.0801 21.3361 14.0801 20.0196C15.3736 20.0196 16.6604 20.0196 17.9084 20.0196C16.6424 21.3052 15.3584 22.6092 14.0801 23.9084Z" fill="black"/>
</g>
<defs>
<clipPath id="clip0_13277_73670">
<rect width="18" height="24" fill="white"/>
</clipPath>
</defs>
</svg>
